<svg xmlns="http://www.w3.org/2000/svg" width="315" height="315">
  <g class="currentLayer">
    <rect width="315" height="316" x=".17303228" y="-.49681771" fill="#54f254" color="#000" rx="0" ry="0" transform="rotate(179.855 157.673 157.503)"/>
    <rect width="272" height="274.15786743" x="22.17304754" y="20.0821389" fill="none" stroke="#000" stroke-dasharray="5 5" stroke-width="3" color="#000" rx="0" ry="0"/>
    <g stroke="#000">
      <path d="M138.5030365 89.6496309c-5.20401812-5.16366815-9.95061207-9.82164287-14.29289341-14.02136802 13.90592575-15.28074837 24.17630386-25.47869301 24.84292793-26.13857651 3.92279554-3.8838029 10.2682066-3.86978579 14.172575.03234705 3.9043684 3.90213275 3.88919353 10.21411896-.03360228 14.09792424-.16146513.15960183-10.62914701 10.55483499-24.68900724 26.02967324zM178.37054443 222.68985307c1.3061533 1.09333039 2.6123066 2.18450451 3.91629172 3.27028704 3.91737604 3.25950432 7.75995922 6.42520285 11.51582718 9.48954677-16.67323494 19.0513363-29.8041401 32.33950425-30.65503502 33.19778061-1.96085596 1.97748304-4.5482316 2.96945906-7.13560725 2.96945906-2.54184985 0-5.08478403-.9563945-7.03696823-2.87134004-3.94122219-3.86655068-3.98458051-10.17853832-.09863895-14.09792423.2016043-.20486426 13.10597748-13.2623136 29.49413055-31.9578092zM229.43411255 191.40381181c-1.94026077-2.3731954-3.79380608-4.62131548-5.52378178-6.71309137-2.53101063-3.06218743-5.08586788-6.12221861-7.6537323-9.18332863 30.45558739-42.4598236 34.6493721-65.19763184 27.79125405-72.01855469-.73274649-.7288869-1.506683-1.56775379-3.0989976-1.56775379h-.02601467c-4.38563966 0-13.3834648 3.5732708-31.34334373 18.61357308-7.12476778 5.9658742-14.75682259 13.23641395-22.57639504 20.80454826-4.52113246-5.11406899-8.9869852-10.12893963-13.35419654-14.94110394 26.0471897-25.20266723 48.83278656-43.88417053 67.21323394-43.88417053h.08346373c6.68468619 0 12.65830612 2.54894757 17.27590752 7.14222956 11.01829624 10.96025944 11.61555004 28.22711754 1.77441716 51.19999695-6.09181352 14.22079658-16.36866899 31.23860359-30.56181474 50.5476551zM78.20648193 131.41937578c3.47837782 3.51935935 7.21473551 7.26083564 11.23616982 11.26108837 1.00481665.99952388 2.04323554 2.0216906 3.09682965 3.05571842-24.10475921 33.78757477-28.27686119 51.04904175-28.285532 58.91476059-.00650366 5.0871129 1.64217604 7.67379951 2.8811245 8.9073.7555095.75152987 1.55437648 1.57637953 3.19004893 1.57637953h.02601467c4.42249394 0 13.48101902-3.55817556 31.5265236-18.66101455 7.09658479-5.93891812 14.68853378-13.15339089 22.46691703-20.674078 4.83114052 4.38518191 9.8237896 8.86740495 14.9313364 13.39383508-26.71165977 25.96716046-50.05983482 45.35058331-68.86409507 45.35058331h-.08454769c-6.71937227 0-12.72442531-2.53277445-17.36587715-7.15193272-5.81861448-5.78796577-8.76369285-13.46176528-8.75176906-22.71733474.01517522-12.7598343 5.68528938-28.52686692 17.33552551-48.15613556 4.61978118-7.78377056 10.19665496-16.18970013 16.66133086-25.09916973z"/>
      <path d="M42.4894104 63.8679384c.03468623-.49383167.09755501-.97688103.18643847-1.45130432.08888345-.47442344.20486553-.940221.34577832-1.398471.98855746-3.21098423 3.22473478-6.07369804 6.3172288-9.14990234.50945394-.50677055 1.0124042-.98658508 1.5121026-1.44483507.04444172-.04097293.08888345-.08086764.13332519-.12184055.47693565-.43345052.9506194-.84425807 1.4232192-1.23026621.03360228-.02695588.06720456-.05606823.10080685-.0830241.49102691-.3967905.98096979-.76770335 1.47308052-1.11058211.03685412-.02587765.07479218-.05067705.11164629-.0765547.46934801-.32239228.93978-.61890691 1.41563165-.88954389.04986145-.02803411.0997229-.05714645.14958435-.08518057.50078243-.2792629 1.00698447-.53049165 1.5196904-.74829507.01300733-.00539117.02709861-.00970411.04010595-.01617353.5062021-.2124123 1.01999187-.39139932 1.54245305-.54019576.05311328-.0150953.10622656-.02911235.15933984-.04420764.51053792-.13909232 1.03083122-.24799406 1.56196428-.32347056.03360228-.00431294.06720456-.01078235.10080685-.01617352.55606353-.07439822 1.12513447-.1132147 1.70829654-.11429292.06937245 0 .1387449.00215647.20811735.0032347.25364303.00323471.50945395.01293883.76851672.0301906.0877995.00539117.175599.01078234.2644825.01833.33168703.0280341.66770982.06361586 1.0091524.1142929.01517523.00215647.03035046.00539118.04552568.00754765.32843521.04959881.66445798.11321469 1.0026487.18545646.0899674.01940823.18101875.0398947.27207006.06038117.30567238.06900704.61459655.1477182.92894047.23505525.05853301.01617353.11598208.03019058.17559901.04744234.37396089.1078235.75442541.22858583 1.14139355.36120877.07262428.0247994.14741647.05283351.22004073.07871116.32626734.11537115.65687043.24044642.99289322.37414753.0899674.03558176.1799348.07116352.2699022.1078235.8140424.3342529 1.65735138.72241753 2.53534651 1.1666503.09647107.04852058.19294214.09919762.28941318.14879644.39347187.2027082.79236353.41619876 1.19992662.64154994.05311328.02911235.10405868.05606823.15717196.0862588.46826408.26201112.94519961.53911758 1.43189085.83131928.07262428.0431294.14741647.0894935.22004074.1347794.42057052.25446346.84764463.52078759 1.28230631.79789393.09755501.06253764.19402608.1229188.29266507.18653466 1.01457214.65448874 2.07033395 1.37043679 3.17053794 2.15107918.10514264.07439822.21028527.1509529.31651181.22642937.49969846.35797403 1.00806845.72780866 1.52619398 1.11166025.05744906.0431294.1138142.0830241.17126326.1261535.58641404.4366852 1.18583525.89062213 1.7960962 1.36181092.07479219.0582247.1528362.11860586.22762839.17683054.53330076.41296405 1.07635689.83994514 1.62808478 1.27878678.11814995.09380645.23521596.18653466.3544499.28141934 1.25737571 1.00599336 2.56569695 2.08099365 3.92713117 3.22607922.13657701.11537116.27532193.23289879.41406682.34934819.60158927.50892693 1.21401787 1.03079271 1.837286 1.56667566.0899674.07763292.1777669.15203116.26773432.22966408.7164874.61782866 1.4459821 1.25506567 2.1906519 1.90955424.11164628.09811938.22654443.20055172.33819073.29867112.63952732.56499511 1.29097795 1.1429292 1.9521842 1.73488033.15933984.14232704.31759578.28465408.47910353.42805931 1.54028523 1.38229728 3.13910341 2.83899284 4.79970646 4.37224293.1875224.17359583.3772127.34934819.566903.52402222.70673191.65341044 1.4232192 1.32083798 2.15271377 2.00120425.14524856.13585762.28724527.2674023.43357784.40433813.8628199.80759805 1.74081492 1.63460433 2.63615322 2.48101902.16475957.15634408.33385491.3170011.49969846.47442343.7468378.70732218 1.5055989 1.4297396 2.27519941 2.16401768.2287123.2178035.45634064.43560699.68613696.65556687 1.46982873 1.40601862 2.99168706 2.87349653 4.54606343 4.37871218.41081506.39786875.81621027.78818977 1.23352897 1.19360626.2601467.25338527.5235452.50892693.78694373.76554686.8042869.7817204 1.61941314 1.5774579 2.44537902 2.38505601.2330481.22750758.4617604.45070231.69697636.68036634 1.02107585.99952388 2.05841089 2.01845598 3.11308861 3.05679608.24388754.23936818.49319479.48628398.73816627.72780865.8508966.83778864 1.71154833 1.68851614 2.5852077 2.55326056.3208476.3170011.6416952.63508046.9657945.95531625.56907088.56391692 1.15223313 1.14400733 1.73105956 1.7176286.50945395.50569224 1.00806844.99952388 1.52511 1.5138421.03685412.03666.07370824.07224176.11056235.10997998 2.95374894 2.93819046 6.0343194 6.06830645 9.217865 9.36123658 3.1835451 3.29293012 6.46898126 6.7475953 9.83137702 10.33380508 2.5223391 2.69019628 5.08695173 5.45479107 7.68516731 8.28084564.86607183.94237745 1.73539532 1.89122415 2.6090548 2.8465407 1.19667483 1.31005572 2.40202118 2.63628458 3.61061932 3.9689834 2.31638956 2.55541706 4.64903831 5.14641524 6.99577856 7.77191878-2.34673977-2.62658048-4.679389-5.21757984-6.99577856-7.77191878 2.89413213-2.8681054 5.74924182-5.66720342 8.56858253-8.39513874 4.3672123 4.81324148 8.83306408 9.80115605 13.35419655 14.91630268-2.83776713 2.7462647-5.70154905 5.5583024-8.57508469 8.40592194-1.22485745-1.38768852-2.4486308-2.76998591-3.66915273-4.1436572 1.22052168 1.37367152 2.44429516 2.75704717 3.66915273 4.1436572.57232273.64801931 1.14464545 1.29603863 1.71805215 1.94729245 4.49728632 5.10975551 9.00649452 10.29714489 13.47993374 15.50502014 3.579185 4.16630077 7.13452291 8.34446144 10.64216804 12.50429153 1.56304813 1.85456431 3.1152568 3.7048161 4.6577096 5.54967594.1875224.22427291.3772127.449624.56473518.67389697 1.72672379 2.06805492 3.438272 4.12748337 5.1313939 6.17505265 1.69312144 2.04756832 3.36781622 4.0843544 5.02191544 6.10388898.79019565.96609873 1.57605541 1.92788423 2.35649538 2.88643551.8519804 1.04588807 1.69854117 2.08854127 2.53643012 3.12472534.8042869.99305445 1.60098625 1.98071778 2.3922658 2.96299005 1.5825591 1.96562254 3.13801932 3.90968013 4.66421366 5.82786083 2.29037475 2.87888766 4.51462888 5.70062876 6.6619234 8.45444107 5.01107598 6.42520285 9.60700036 12.47517872 13.65228177 17.99035073 1.15548491 1.57530152 2.26652813 3.10747337 3.328794 4.59220314.53113288.74182582 1.05034232 1.47286915 1.5576284 2.19097352 1.52077424 2.1543138 2.92990207 4.19864702 4.21654462 6.11790561 3.8610108 5.75993204 6.62181807 10.40820313 7.99734259 13.60409165.08237979.19192584.14633253.38385168.1972779.57577753.01625917.0614594.02601467.1229188.039022.1843782.02818256.13046647.05311329.25985465.0682885.38924286.00758762.07008528.0119234.14017056.01625918.20917762.00758761.11968409.0097555.23936818.00541972.3568958-.00216789.06900705-.00541972.1380141-.01083944.20594288-.01083945.12184056-.0292665.24152469-.0509454.36013052-.01083944.05930293-.019511.11860586-.03251834.1779088-.03577017.15310938-.08129585.30298403-.13549307.449624-.0075876.02048646-.01192339.04205116-.019511.0614594-.06395273.1660482-.13982883.32562697-.22546048.48089284-.02601467.0463641-.05636512.09057174-.08346373.1358576-.06395273.10674529-.13007335.21025584-.20378158.31053168-.03793805.05175529-.07912795.10243233-.12031784.15203116-.07154034.08841527-.14524856.17359583-.22437651.2555417-.04552567.04852059-.0921353.09596293-.1409128.14124879-.08454768.07978939-.17234717.15526583-.26339853.22750757-.04769356.03881646-.09430317.07871116-.14416464.11537116-.11381419.08410233-.23413203.15957878-.35661774.2307423-.03035045.01725176-.05853301.03881646-.08888346.05606823-.15500408.08518057-.3165118.15957878-.4834393.2242729-.04444172.01725177-.09213529.02911235-.13766096.04528588-.12356968.04205116-.2482233.08194586-.37612876.11213645-.06286879.0150953-.12790546.02587764-.19185819.03773823-.11489811.0215647-.23196414.03773822-.3501141.04852058-.06937246.0064694-.13874491.01078235-.20811736.01293882-.0899674.0032347-.1799348-.00107824-.27098614-.00431294-.17017929-.00539118-.34252652-.02372117-.51595759-.05283352-.07370824-.01186058-.14741647-.0215647-.2211247-.03773822-.2428036-.05499-.48777508-.1261535-.73274648-.22966408-1.07093727-.45609346-2.30121445-1.06745278-3.67999196-1.82329547-.91918492-.50353575-1.90340685-1.07176554-2.94941353-1.70145488-1.04600645-.62968927-2.15488172-1.31975972-3.32120562-2.06805491-3.50005746-2.24488545-7.52257538-5.01163674-11.96999931-8.21291638-1.48283613-1.06745279-3.01228214-2.1834259-4.58508587-3.34360718-2.35974741-1.7413497-4.81596566-3.58405304-7.35781575-5.51840687-2.54184985-1.9343536-5.16933155-3.95927906-7.86835384-6.06507206-1.79934788-1.40386212-3.63229847-2.84330607-5.49234724-4.31509686-.93002444-.73535633-1.86763656-1.48041677-2.81175232-2.23194623-1.88823128-1.50305974-3.80356145-3.03738832-5.7416544-4.599751-1.93809282-1.56236266-3.89894819-3.15168118-5.8793149-4.76687717-.15066829-.1229188-.30350446-.24799406-.45417281-.3709129-1.83186639-1.49551202-3.67890788-3.00827575-5.54112482-4.54260398-3.02312136-2.49072313-6.08092928-5.0288887-9.16258336-7.60479164-.24063567-.20055172-.4823553-.40433812-.72190707-.60596806-1.81560708-1.52031147-3.63771844-3.05032706-5.46633244-4.59328126-1.03516698-.87337041-2.07250214-1.7510537-3.10983682-2.63089347-2.07575392-1.75967968-4.15584373-3.53229857-6.23701763-5.31246424-1.52294207-1.30358625-3.04696798-2.61256361-4.56991005-3.92369723-1.114295-.9596293-2.22642183-1.9203366-3.33854914-2.88212252-2.00746536-1.73703647-4.01059484-3.47730804-6.00722026-5.21973562-1.0991199-.9596293-2.19607163-1.9192586-3.29085589-2.87888766-1.51101899-1.32515084-3.01770162-2.64922356-4.51679706-3.97329592-.61134476-.53911758-1.21943772-1.07823515-1.8275305-1.6173526-2.89088012 2.8724184-5.74924184 5.68876838-8.56641293 8.42856406-5.10754729-4.5264306-10.10127926-9.00434112-14.9313364-13.38952255 2.83993458-2.7462647 5.70371627-5.55722332 8.57833766-8.40376472 1.54570496 1.40170562 3.10224915 2.80880236 4.6739688 4.22344684-1.5728035-1.41464436-3.12826395-2.82174134-4.6739688-4.22344684-.3988916-.36228699-.80103504-.72565216-1.19775879-1.08578265-.9679625-.87983984-1.92942119-1.75644493-2.88546014-2.62873697-1.91099429-1.74674082-3.79705763-3.47946453-5.6549387-5.19493676-8.55340671-7.90238475-16.49113273-15.44679546-23.46198082-22.32917022-.59725344-.58979458-1.19342291-1.17851103-1.77658522-1.75860143-4.47669124-4.45311117-8.63036632-8.61941051-12.48704147-12.53124714-4.87775087-4.94586372-9.2763977-9.4819994-13.2219553-13.64614296-1.9261694-2.03355121-3.74611259-3.97976541-5.46199656-5.8440342-2.28820705-2.48533177-4.39214325-4.82510232-6.32156515-7.0322485-1.44706607-1.65509092-2.79549312-3.23578357-4.05070066-4.74639081-2.5093317-3.02229285-4.64036703-5.76855755-6.42453909-8.28084564-.59508562-.83778864-1.15114927-1.64969957-1.66927457-2.43681145-.25906277-.39355579-.50945395-.7817204-.75008958-1.16341567-.48127136-.76339042-.9267726-1.50413787-1.33541966-2.22224283-1.02215981-1.79633975-1.8221109-3.45682144-2.41611266-5.00624562-.23738386-.61998516-.44224939-1.22164034-.61568052-1.80820024-.34577831-1.17204153-.56581908-2.2793889-.66770982-3.33605933-.0769562-.78494335-.08670656-1.54831005-.03468935-2.28909374zm37.96513367 27.21897888c6.49174404 6.45754957 12.93470955 11.59102726 17.82763862 14.45266438 3.92171193 2.29448413 6.84836197 3.13227296 7.9886713 1.9979695 1.20751417-1.20115387.1799348-4.403512-2.44646286-8.65822696-2.94616104-4.7722683-7.90845967-10.87076569-14.09236431-17.02209664C78.03626513 70.22307134 66.47816443 62.85764718 63.91680312 65.405514s4.8420012 14.04726327 16.53774095 25.68140328z"/>
    </g>
  </g>
</svg>
